<?xml version="1.0" standalone="no"?>
<!DOCTYPE svg PUBLIC "-//W3C//DTD SVG 20010904//EN"
 "http://www.w3.org/TR/2001/REC-SVG-20010904/DTD/svg10.dtd">
<svg version="1.0" xmlns="http://www.w3.org/2000/svg"
 width="382.000000pt" height="324.000000pt" viewBox="0 0 382.000000 324.000000"
 preserveAspectRatio="xMidYMid meet">

<g transform="translate(0.000000,324.000000) scale(0.100000,-0.100000)"
fill="#000000" stroke="none">
<path d="M1736 2909 c-283 -39 -519 -159 -728 -370 l-108 -109 0 150 0 150
-125 0 -125 0 0 -375 0 -375 375 0 375 0 0 125 0 125 -160 0 c-88 0 -160 4
-160 8 0 5 29 42 65 84 68 79 170 163 270 221 123 71 336 127 485 127 153 0
363 -56 492 -131 252 -147 416 -367 482 -649 l22 -95 123 -3 124 -3 -7 58
c-17 143 -79 319 -161 459 -178 301 -488 521 -829 590 -91 18 -321 26 -410 13z"/>
<path d="M650 1637 c0 -149 52 -353 130 -513 70 -145 150 -253 263 -360 71
-68 213 -174 231 -174 3 0 6 65 6 144 l0 145 -83 83 c-174 175 -271 384 -293
631 l-7 77 -123 0 -124 0 0 -33z"/>
<path d="M2405 1537 c-3 -6 -4 -176 -3 -377 l3 -365 248 -3 247 -2 0 -185 0
-185 125 0 125 0 0 565 0 566 -122 -3 -123 -3 -3 -247 -2 -248 -125 0 -125 0
0 250 0 250 -120 0 c-88 0 -122 -3 -125 -13z"/>
<path d="M1783 1526 c-131 -42 -253 -193 -253 -316 l0 -40 125 0 125 0 0 26
c0 16 13 39 34 60 30 30 40 34 85 34 41 0 56 -5 81 -27 35 -32 50 -83 38 -129
-5 -22 -76 -97 -248 -263 l-240 -233 0 -109 0 -109 375 0 375 0 0 125 0 125
-177 0 -178 0 142 141 c155 153 189 203 202 304 10 73 -3 157 -35 222 -33 69
-127 155 -199 182 -65 24 -185 28 -252 7z"/>
</g>
</svg>
