<?xml version="1.0" standalone="no"?>
<!DOCTYPE svg PUBLIC "-//W3C//DTD SVG 20010904//EN"
 "http://www.w3.org/TR/2001/REC-SVG-20010904/DTD/svg10.dtd">
<svg version="1.0" xmlns="http://www.w3.org/2000/svg"
 width="441.000000pt" height="317.000000pt" viewBox="0 0 441.000000 317.000000"
 preserveAspectRatio="xMidYMid meet">

<g transform="translate(0.000000,317.000000) scale(0.100000,-0.100000)"
fill="#000000" stroke="none">
<path d="M1107 2672 l-217 -217 88 -88 87 -87 220 220 220 220 -85 85 c-46 47
-87 85 -90 85 -3 0 -103 -98 -223 -218z"/>
<path d="M2920 2805 l-85 -85 220 -220 220 -220 87 87 88 88 -217 217 c-120
120 -220 218 -223 218 -3 0 -44 -38 -90 -85z"/>
<path d="M2000 2725 c-124 -21 -200 -44 -298 -90 -294 -139 -503 -373 -601
-671 -44 -134 -54 -221 -48 -396 6 -184 31 -289 107 -444 146 -301 406 -512
739 -602 83 -22 117 -25 256 -26 168 -1 221 7 360 50 379 119 674 449 755 842
59 290 -1 602 -164 846 -243 365 -689 563 -1106 491z m379 -260 c76 -18 208
-78 287 -131 120 -80 235 -217 299 -358 57 -124 70 -193 70 -361 0 -168 -13
-237 -70 -361 -110 -242 -304 -407 -570 -485 -110 -33 -329 -33 -448 -1 -174
47 -354 166 -461 303 -231 295 -253 715 -53 1016 66 100 122 159 209 224 119
88 267 150 413 173 55 8 259 -4 324 -19z"/>
<path d="M2042 1803 l3 -438 313 -3 312 -2 0 130 0 130 -185 0 -185 0 0 310 0
310 -130 0 -130 0 2 -437z"/>
</g>
</svg>
