<?xml version="1.0" standalone="no"?>
<!DOCTYPE svg PUBLIC "-//W3C//DTD SVG 20010904//EN"
 "http://www.w3.org/TR/2001/REC-SVG-20010904/DTD/svg10.dtd">
<svg version="1.0" xmlns="http://www.w3.org/2000/svg"
 width="388.000000pt" height="286.000000pt" viewBox="0 0 388.000000 286.000000"
 preserveAspectRatio="xMidYMid meet">

<g transform="translate(0.000000,286.000000) scale(0.100000,-0.100000)"
fill="#000000" stroke="none">
<path d="M795 2571 c-45 -11 -73 -32 -90 -67 -13 -28 -15 -166 -15 -1054 0
-1127 -4 -1065 63 -1105 31 -20 58 -20 1187 -20 1129 0 1156 0 1187 20 57 34
63 60 63 279 l0 195 63 3 62 3 0 625 0 625 -62 3 -63 3 0 195 c0 219 -6 245
-63 279 -31 20 -60 20 -1167 22 -624 0 -1148 -2 -1165 -6z m2145 -371 l0 -120
-357 0 c-197 0 -400 -5 -451 -10 -266 -28 -482 -212 -547 -465 -20 -77 -19
-230 1 -308 66 -257 279 -439 546 -467 51 -5 254 -10 451 -10 l357 0 0 -120 0
-120 -1000 0 -1000 0 0 870 0 870 1000 0 1000 0 0 -120z m130 -750 l0 -371
-492 3 -493 3 -56 28 c-68 33 -152 119 -181 184 -33 73 -37 210 -8 285 23 63
98 153 156 189 76 46 92 48 597 48 l477 1 0 -370z"/>
<path d="M2194 1567 c-2 -7 -3 -65 -2 -128 l3 -114 185 0 185 0 0 125 0 125
-183 3 c-145 2 -184 0 -188 -11z"/>
</g>
</svg>
