<?xml version="1.0" standalone="no"?>
<!DOCTYPE svg PUBLIC "-//W3C//DTD SVG 20010904//EN"
 "http://www.w3.org/TR/2001/REC-SVG-20010904/DTD/svg10.dtd">
<svg version="1.0" xmlns="http://www.w3.org/2000/svg"
 width="345.000000pt" height="324.000000pt" viewBox="0 0 345.000000 324.000000"
 preserveAspectRatio="xMidYMid meet">

<g transform="translate(0.000000,324.000000) scale(0.100000,-0.100000)"
fill="#000000" stroke="none">
<path d="M1647 2871 c-210 -57 -366 -258 -367 -473 0 -138 50 -260 149 -359
199 -198 503 -198 701 0 142 144 186 339 116 525 -92 243 -348 374 -599 307z
m256 -264 c75 -44 127 -135 127 -222 0 -57 -31 -127 -77 -171 -168 -164 -444
-30 -420 204 10 93 74 175 164 208 57 21 152 12 206 -19z"/>
<path d="M905 2134 c-95 -24 -174 -84 -214 -165 -26 -52 -31 -74 -31 -134 0
-103 22 -159 89 -226 66 -65 124 -89 217 -89 122 0 231 68 285 176 32 66 33
187 2 255 -48 107 -151 179 -265 185 -35 1 -72 1 -83 -2z m105 -264 c40 -40
13 -100 -45 -100 -39 0 -55 16 -55 54 0 59 59 87 100 46z"/>
<path d="M2493 2121 c-253 -87 -287 -422 -57 -561 56 -34 62 -35 154 -35 84 0
101 3 146 27 64 34 128 105 148 165 59 172 -34 357 -203 407 -70 21 -123 20
-188 -3z m139 -248 c20 -18 24 -73 6 -91 -7 -7 -25 -12 -42 -12 -59 0 -87 59
-46 100 24 24 57 26 82 3z"/>
<path d="M1625 1746 c-218 -62 -376 -215 -446 -431 -21 -67 -22 -89 -27 -497
l-4 -428 131 0 130 0 3 428 3 427 28 57 c36 73 102 139 174 174 80 40 212 46
296 14 76 -29 167 -112 204 -188 l28 -57 3 -428 3 -427 130 0 131 0 -5 418
c-5 456 -6 469 -66 597 -70 150 -180 253 -337 316 -72 30 -90 33 -204 36 -86
2 -141 -2 -175 -11z"/>
<path d="M865 1376 c-113 -27 -220 -107 -278 -206 -51 -88 -57 -137 -57 -472
l0 -308 125 0 125 0 0 300 c0 337 1 341 68 402 43 39 88 53 146 46 l33 -4 7
71 c3 38 12 93 20 121 l14 52 -30 6 c-46 9 -117 6 -173 -8z"/>
<path d="M2514 1383 c-21 -4 -21 -6 -8 -56 7 -29 16 -84 20 -124 l7 -71 33 5
c40 7 111 -11 139 -35 11 -9 32 -33 45 -52 l25 -35 3 -312 3 -313 125 0 124 0
0 303 c0 326 -5 368 -55 466 -79 158 -287 258 -461 224z"/>
</g>
</svg>
