<?xml version="1.0" standalone="no"?>
<!DOCTYPE svg PUBLIC "-//W3C//DTD SVG 20010904//EN"
 "http://www.w3.org/TR/2001/REC-SVG-20010904/DTD/svg10.dtd">
<svg version="1.0" xmlns="http://www.w3.org/2000/svg"
 width="367.000000pt" height="311.000000pt" viewBox="0 0 367.000000 311.000000"
 preserveAspectRatio="xMidYMid meet">

<g transform="translate(0.000000,311.000000) scale(0.100000,-0.100000)"
fill="#000000" stroke="none">
<path d="M1546 2839 c-410 -57 -764 -308 -952 -675 -171 -337 -177 -741 -15
-1097 53 -119 138 -237 250 -348 148 -147 302 -244 485 -304 74 -25 217 -57
224 -51 1 2 -14 27 -34 57 -20 30 -56 95 -79 144 -42 88 -44 91 -92 108 -77
28 -217 116 -292 184 -361 327 -435 873 -175 1276 50 78 114 157 126 157 4 0
17 -19 29 -42 17 -33 24 -70 29 -153 4 -61 12 -120 19 -133 15 -28 52 -43 176
-72 l100 -22 78 -80 c46 -46 85 -77 92 -74 8 3 19 24 26 46 10 34 10 46 -1 63
-39 61 -53 106 -58 182 -4 68 -1 89 16 128 29 65 60 77 201 77 129 0 136 4
184 100 24 48 49 78 98 120 37 30 80 63 97 73 30 17 31 17 97 -18 197 -105
373 -295 452 -489 l27 -68 81 -38 c45 -20 106 -53 136 -72 30 -19 60 -37 66
-42 16 -9 11 21 -24 154 -48 185 -157 378 -298 529 -173 183 -416 318 -659
367 -91 18 -321 26 -410 13z"/>
<path d="M2262 1719 c-105 -10 -170 -29 -268 -79 -187 -94 -333 -275 -384
-476 -25 -97 -27 -256 -4 -357 48 -215 198 -403 400 -503 110 -54 197 -74 326
-74 221 0 397 76 548 237 79 84 132 171 167 278 25 73 27 93 27 230 0 135 -3
158 -27 230 -35 106 -88 194 -167 278 -166 178 -381 260 -618 236z m209 -265
c120 -36 209 -101 278 -205 55 -82 81 -170 81 -274 0 -224 -139 -411 -353
-477 -55 -16 -87 -19 -170 -16 -92 4 -110 8 -180 41 -56 26 -96 54 -141 99
-109 109 -150 219 -144 383 3 97 6 107 46 188 63 127 155 207 297 258 66 23
212 25 286 3z"/>
<path d="M2210 1100 l0 -250 250 0 250 0 0 125 0 125 -125 0 -125 0 0 125 0
125 -125 0 -125 0 0 -250z"/>
</g>
</svg>
