<?xml version="1.0" standalone="no"?>
<!DOCTYPE svg PUBLIC "-//W3C//DTD SVG 20010904//EN"
 "http://www.w3.org/TR/2001/REC-SVG-20010904/DTD/svg10.dtd">
<svg version="1.0" xmlns="http://www.w3.org/2000/svg"
 width="499.000000pt" height="311.000000pt" viewBox="0 0 499.000000 311.000000"
 preserveAspectRatio="xMidYMid meet">

<g transform="translate(0.000000,311.000000) scale(0.100000,-0.100000)"
fill="#000000" stroke="none">
<path d="M2572 2943 c-11 -10 -172 -234 -357 -498 -186 -264 -349 -490 -363
-502 -25 -21 -35 -22 -287 -25 -285 -3 -293 -5 -332 -65 -17 -25 -18 -73 -18
-688 0 -729 -3 -689 62 -732 26 -17 92 -18 1113 -18 1060 0 1086 0 1117 20 40
24 29 -1 264 570 l194 470 0 185 c0 204 -5 225 -65 294 -18 20 -52 47 -74 59
-40 22 -50 22 -473 25 -299 2 -433 6 -433 13 0 6 27 118 61 248 66 257 69 294
29 386 -35 82 -82 121 -242 201 -81 41 -154 74 -162 74 -7 0 -23 -8 -34 -17z
m209 -356 c8 -17 -3 -73 -50 -257 -65 -250 -73 -322 -45 -388 21 -52 70 -100
129 -128 l50 -24 423 0 422 0 0 -138 0 -138 -173 -419 -173 -420 -697 -3 -697
-2 0 523 0 523 44 37 c28 23 155 194 351 472 l306 435 50 -25 c27 -14 54 -36
60 -48z m-1071 -1422 l0 -495 -120 0 -120 0 0 495 0 495 120 0 120 0 0 -495z"/>
</g>
</svg>
