<?xml version="1.0" standalone="no"?>
<!DOCTYPE svg PUBLIC "-//W3C//DTD SVG 20010904//EN"
 "http://www.w3.org/TR/2001/REC-SVG-20010904/DTD/svg10.dtd">
<svg version="1.0" xmlns="http://www.w3.org/2000/svg"
 width="420.000000pt" height="293.000000pt" viewBox="0 0 420.000000 293.000000"
 preserveAspectRatio="xMidYMid meet">

<g transform="translate(0.000000,293.000000) scale(0.100000,-0.100000)"
fill="#000000" stroke="none">
<path d="M1308 2650 c-26 -5 -52 -11 -59 -15 -7 -5 44 -63 140 -159 183 -184
206 -228 165 -324 -42 -101 -145 -147 -242 -107 -23 10 -96 74 -189 167 -132
131 -153 149 -160 132 -4 -10 -8 -68 -8 -129 0 -102 2 -115 31 -175 101 -211
337 -309 553 -228 l54 20 668 -668 669 -669 87 88 88 87 -669 669 -668 668 21
59 c63 166 22 344 -109 468 -67 64 -142 102 -227 116 -65 11 -78 11 -145 0z"/>
<path d="M2723 2502 l-191 -107 -22 -110 -21 -110 -132 -133 -132 -132 88 -87
87 -88 132 132 133 132 110 21 110 22 108 193 c59 106 107 196 107 201 0 13
-163 174 -175 174 -6 0 -96 -49 -202 -108z"/>
<path d="M1348 1032 c-297 -298 -348 -352 -353 -384 -10 -54 16 -102 72 -129
79 -38 78 -39 461 343 l342 343 -88 88 -87 87 -347 -348z"/>
</g>
</svg>
