<?xml version="1.0" standalone="no"?>
<!DOCTYPE svg PUBLIC "-//W3C//DTD SVG 20010904//EN"
 "http://www.w3.org/TR/2001/REC-SVG-20010904/DTD/svg10.dtd">
<svg version="1.0" xmlns="http://www.w3.org/2000/svg"
 width="348.000000pt" height="333.000000pt" viewBox="0 0 348.000000 333.000000"
 preserveAspectRatio="xMidYMid meet">

<g transform="translate(0.000000,333.000000) scale(0.100000,-0.100000)"
fill="#000000" stroke="none">
<path d="M1470 2987 c-236 -70 -416 -284 -438 -522 l-7 -70 -210 -5 c-180 -4
-214 -8 -236 -23 -56 -37 -54 -9 -54 -982 0 -1004 -4 -944 69 -979 32 -15 125
-16 1070 -14 l1036 3 30 31 c17 17 35 48 40 70 12 51 12 1737 0 1788 -5 22
-23 53 -39 70 l-31 31 -215 3 -215 3 0 42 c-1 180 -131 392 -306 495 -140 83
-334 106 -494 59z m343 -262 c110 -55 192 -169 204 -282 l6 -53 -372 0 -371 0
0 40 c0 63 36 144 91 205 91 98 157 126 295 122 76 -2 99 -7 147 -32z m707
-1335 l0 -750 -870 0 -870 0 0 750 0 750 870 0 870 0 0 -750z"/>
<path d="M1030 1844 c0 -61 25 -155 60 -229 66 -136 189 -249 335 -306 67 -27
97 -33 189 -37 163 -7 278 25 403 114 142 101 253 302 253 458 l0 46 -124 0
-123 0 -6 -56 c-8 -75 -49 -154 -113 -214 -81 -77 -128 -94 -254 -95 -95 0
-110 3 -162 28 -110 54 -197 173 -206 283 l-4 54 -124 0 -124 0 0 -46z"/>
</g>
</svg>
