<?xml version="1.0" standalone="no"?>
<!DOCTYPE svg PUBLIC "-//W3C//DTD SVG 20010904//EN"
 "http://www.w3.org/TR/2001/REC-SVG-20010904/DTD/svg10.dtd">
<svg version="1.0" xmlns="http://www.w3.org/2000/svg"
 width="438.000000pt" height="277.000000pt" viewBox="0 0 438.000000 277.000000"
 preserveAspectRatio="xMidYMid meet">

<g transform="translate(0.000000,277.000000) scale(0.100000,-0.100000)"
fill="#000000" stroke="none">
<path d="M961 2410 c-45 -11 -80 -48 -91 -96 -5 -21 -10 -373 -10 -781 l0
-743 69 0 68 0 7 -38 c21 -131 143 -264 284 -311 232 -79 494 58 559 292 l16
57 317 0 317 0 7 -37 c15 -91 91 -201 182 -263 101 -70 263 -92 380 -51 140
50 250 167 285 304 l11 47 129 0 129 0 0 368 0 368 -188 254 -189 255 -185 3
-186 2 -3 143 c-4 155 -12 179 -66 214 -25 17 -85 18 -918 20 -489 0 -905 -2
-924 -7z m1649 -754 l0 -504 -23 -29 c-13 -15 -31 -40 -40 -56 l-17 -27 -354
0 -354 0 -26 44 c-33 57 -113 128 -181 161 -146 72 -326 51 -462 -53 l-33 -24
0 496 0 496 745 0 745 0 0 -504z m624 -29 c66 -89 122 -172 124 -184 l4 -23
-246 0 -246 0 0 185 0 185 123 0 122 0 119 -163z m-1741 -601 c75 -27 117 -91
117 -179 0 -66 -35 -125 -92 -157 -32 -18 -51 -21 -103 -18 -77 5 -128 39
-157 106 -42 93 -4 190 92 240 50 25 88 27 143 8z m1504 -1 c74 -31 113 -92
113 -175 0 -61 -17 -96 -65 -138 -43 -38 -69 -46 -140 -40 -67 6 -119 43 -147
106 -42 93 -4 190 92 240 52 26 96 28 147 7z"/>
</g>
</svg>
