<?xml version="1.0" standalone="no"?>
<!DOCTYPE svg PUBLIC "-//W3C//DTD SVG 20010904//EN"
 "http://www.w3.org/TR/2001/REC-SVG-20010904/DTD/svg10.dtd">
<svg version="1.0" xmlns="http://www.w3.org/2000/svg"
 width="328.000000pt" height="316.000000pt" viewBox="0 0 328.000000 316.000000"
 preserveAspectRatio="xMidYMid meet">

<g transform="translate(0.000000,316.000000) scale(0.100000,-0.100000)"
fill="#000000" stroke="none">
<path d="M1084 2785 c-275 -62 -510 -118 -522 -124 -12 -6 -30 -26 -39 -44
-17 -30 -18 -82 -18 -722 1 -682 1 -691 23 -770 25 -90 65 -179 109 -243 68
-99 139 -155 560 -438 233 -156 428 -284 434 -284 5 0 193 122 417 272 523
349 587 410 663 632 45 129 50 238 47 916 -3 562 -4 607 -21 638 -10 19 -33
39 -50 47 -50 21 -1028 235 -1067 234 -19 -1 -260 -52 -536 -114z m899 -214
c194 -44 389 -87 435 -97 l82 -17 0 -618 c0 -585 -1 -620 -20 -680 -21 -70
-65 -146 -113 -198 -28 -29 -696 -484 -732 -497 -13 -5 -658 423 -721 478 -51
45 -111 142 -134 215 -19 62 -20 92 -20 682 l0 618 428 96 c235 52 431 96 435
96 4 1 166 -35 360 -78z"/>
<path d="M1545 2267 c-68 -23 -101 -44 -148 -97 -60 -67 -81 -130 -75 -224 8
-116 64 -202 171 -258 35 -19 58 -23 137 -23 110 0 152 17 225 89 147 147 94
411 -99 497 -61 26 -157 34 -211 16z"/>
<path d="M1545 1524 c-89 -21 -117 -31 -166 -55 -157 -78 -268 -226 -304 -406
l-7 -33 561 0 561 0 -6 28 c-19 84 -29 113 -62 176 -64 123 -193 229 -329 272
-49 15 -211 27 -248 18z"/>
</g>
</svg>
